<?xml version="1.0" encoding="utf-8"?>
<svg xmlns="http://www.w3.org/2000/svg" xmlns:xlink="http://www.w3.org/1999/xlink" style="margin: auto; background: rgb(0, 0, 0); display: block; shape-rendering: auto;" width="200px" height="200px" viewBox="0 0 100 100" preserveAspectRatio="xMidYMid">
<g transform="rotate(0 50 50)">
  <rect x="49.5" y="2.5" rx="0" ry="0" width="1" height="29" fill="#71f7fe">
    <animate attributeName="opacity" values="1;0" keyTimes="0;1" dur="1s" begin="-0.9855072463768116s" repeatCount="indefinite"></animate>
  </rect>
</g><g transform="rotate(5.217391304347826 50 50)">
  <rect x="49.5" y="2.5" rx="0" ry="0" width="1" height="29" fill="#71f7fe">
    <animate attributeName="opacity" values="1;0" keyTimes="0;1" dur="1s" begin="-0.9710144927536232s" repeatCount="indefinite"></animate>
  </rect>
</g><g transform="rotate(10.434782608695652 50 50)">
  <rect x="49.5" y="2.5" rx="0" ry="0" width="1" height="29" fill="#71f7fe">
    <animate attributeName="opacity" values="1;0" keyTimes="0;1" dur="1s" begin="-0.9565217391304348s" repeatCount="indefinite"></animate>
  </rect>
</g><g transform="rotate(15.652173913043478 50 50)">
  <rect x="49.5" y="2.5" rx="0" ry="0" width="1" height="29" fill="#71f7fe">
    <animate attributeName="opacity" values="1;0" keyTimes="0;1" dur="1s" begin="-0.9420289855072463s" repeatCount="indefinite"></animate>
  </rect>
</g><g transform="rotate(20.869565217391305 50 50)">
  <rect x="49.5" y="2.5" rx="0" ry="0" width="1" height="29" fill="#71f7fe">
    <animate attributeName="opacity" values="1;0" keyTimes="0;1" dur="1s" begin="-0.927536231884058s" repeatCount="indefinite"></animate>
  </rect>
</g><g transform="rotate(26.08695652173913 50 50)">
  <rect x="49.5" y="2.5" rx="0" ry="0" width="1" height="29" fill="#71f7fe">
    <animate attributeName="opacity" values="1;0" keyTimes="0;1" dur="1s" begin="-0.9130434782608695s" repeatCount="indefinite"></animate>
  </rect>
</g><g transform="rotate(31.304347826086957 50 50)">
  <rect x="49.5" y="2.5" rx="0" ry="0" width="1" height="29" fill="#71f7fe">
    <animate attributeName="opacity" values="1;0" keyTimes="0;1" dur="1s" begin="-0.8985507246376812s" repeatCount="indefinite"></animate>
  </rect>
</g><g transform="rotate(36.52173913043478 50 50)">
  <rect x="49.5" y="2.5" rx="0" ry="0" width="1" height="29" fill="#71f7fe">
    <animate attributeName="opacity" values="1;0" keyTimes="0;1" dur="1s" begin="-0.8840579710144928s" repeatCount="indefinite"></animate>
  </rect>
</g><g transform="rotate(41.73913043478261 50 50)">
  <rect x="49.5" y="2.5" rx="0" ry="0" width="1" height="29" fill="#71f7fe">
    <animate attributeName="opacity" values="1;0" keyTimes="0;1" dur="1s" begin="-0.8695652173913043s" repeatCount="indefinite"></animate>
  </rect>
</g><g transform="rotate(46.95652173913044 50 50)">
  <rect x="49.5" y="2.5" rx="0" ry="0" width="1" height="29" fill="#71f7fe">
    <animate attributeName="opacity" values="1;0" keyTimes="0;1" dur="1s" begin="-0.855072463768116s" repeatCount="indefinite"></animate>
  </rect>
</g><g transform="rotate(52.17391304347826 50 50)">
  <rect x="49.5" y="2.5" rx="0" ry="0" width="1" height="29" fill="#71f7fe">
    <animate attributeName="opacity" values="1;0" keyTimes="0;1" dur="1s" begin="-0.8405797101449275s" repeatCount="indefinite"></animate>
  </rect>
</g><g transform="rotate(57.391304347826086 50 50)">
  <rect x="49.5" y="2.5" rx="0" ry="0" width="1" height="29" fill="#71f7fe">
    <animate attributeName="opacity" values="1;0" keyTimes="0;1" dur="1s" begin="-0.8260869565217391s" repeatCount="indefinite"></animate>
  </rect>
</g><g transform="rotate(62.608695652173914 50 50)">
  <rect x="49.5" y="2.5" rx="0" ry="0" width="1" height="29" fill="#71f7fe">
    <animate attributeName="opacity" values="1;0" keyTimes="0;1" dur="1s" begin="-0.8115942028985508s" repeatCount="indefinite"></animate>
  </rect>
</g><g transform="rotate(67.82608695652173 50 50)">
  <rect x="49.5" y="2.5" rx="0" ry="0" width="1" height="29" fill="#71f7fe">
    <animate attributeName="opacity" values="1;0" keyTimes="0;1" dur="1s" begin="-0.7971014492753623s" repeatCount="indefinite"></animate>
  </rect>
</g><g transform="rotate(73.04347826086956 50 50)">
  <rect x="49.5" y="2.5" rx="0" ry="0" width="1" height="29" fill="#71f7fe">
    <animate attributeName="opacity" values="1;0" keyTimes="0;1" dur="1s" begin="-0.782608695652174s" repeatCount="indefinite"></animate>
  </rect>
</g><g transform="rotate(78.26086956521739 50 50)">
  <rect x="49.5" y="2.5" rx="0" ry="0" width="1" height="29" fill="#71f7fe">
    <animate attributeName="opacity" values="1;0" keyTimes="0;1" dur="1s" begin="-0.7681159420289855s" repeatCount="indefinite"></animate>
  </rect>
</g><g transform="rotate(83.47826086956522 50 50)">
  <rect x="49.5" y="2.5" rx="0" ry="0" width="1" height="29" fill="#71f7fe">
    <animate attributeName="opacity" values="1;0" keyTimes="0;1" dur="1s" begin="-0.7536231884057971s" repeatCount="indefinite"></animate>
  </rect>
</g><g transform="rotate(88.69565217391305 50 50)">
  <rect x="49.5" y="2.5" rx="0" ry="0" width="1" height="29" fill="#71f7fe">
    <animate attributeName="opacity" values="1;0" keyTimes="0;1" dur="1s" begin="-0.7391304347826086s" repeatCount="indefinite"></animate>
  </rect>
</g><g transform="rotate(93.91304347826087 50 50)">
  <rect x="49.5" y="2.5" rx="0" ry="0" width="1" height="29" fill="#71f7fe">
    <animate attributeName="opacity" values="1;0" keyTimes="0;1" dur="1s" begin="-0.7246376811594203s" repeatCount="indefinite"></animate>
  </rect>
</g><g transform="rotate(99.1304347826087 50 50)">
  <rect x="49.5" y="2.5" rx="0" ry="0" width="1" height="29" fill="#71f7fe">
    <animate attributeName="opacity" values="1;0" keyTimes="0;1" dur="1s" begin="-0.7101449275362319s" repeatCount="indefinite"></animate>
  </rect>
</g><g transform="rotate(104.34782608695652 50 50)">
  <rect x="49.5" y="2.5" rx="0" ry="0" width="1" height="29" fill="#71f7fe">
    <animate attributeName="opacity" values="1;0" keyTimes="0;1" dur="1s" begin="-0.6956521739130435s" repeatCount="indefinite"></animate>
  </rect>
</g><g transform="rotate(109.56521739130434 50 50)">
  <rect x="49.5" y="2.5" rx="0" ry="0" width="1" height="29" fill="#71f7fe">
    <animate attributeName="opacity" values="1;0" keyTimes="0;1" dur="1s" begin="-0.6811594202898551s" repeatCount="indefinite"></animate>
  </rect>
</g><g transform="rotate(114.78260869565217 50 50)">
  <rect x="49.5" y="2.5" rx="0" ry="0" width="1" height="29" fill="#71f7fe">
    <animate attributeName="opacity" values="1;0" keyTimes="0;1" dur="1s" begin="-0.6666666666666666s" repeatCount="indefinite"></animate>
  </rect>
</g><g transform="rotate(120 50 50)">
  <rect x="49.5" y="2.5" rx="0" ry="0" width="1" height="29" fill="#71f7fe">
    <animate attributeName="opacity" values="1;0" keyTimes="0;1" dur="1s" begin="-0.6521739130434783s" repeatCount="indefinite"></animate>
  </rect>
</g><g transform="rotate(125.21739130434783 50 50)">
  <rect x="49.5" y="2.5" rx="0" ry="0" width="1" height="29" fill="#71f7fe">
    <animate attributeName="opacity" values="1;0" keyTimes="0;1" dur="1s" begin="-0.6376811594202898s" repeatCount="indefinite"></animate>
  </rect>
</g><g transform="rotate(130.43478260869566 50 50)">
  <rect x="49.5" y="2.5" rx="0" ry="0" width="1" height="29" fill="#71f7fe">
    <animate attributeName="opacity" values="1;0" keyTimes="0;1" dur="1s" begin="-0.6231884057971014s" repeatCount="indefinite"></animate>
  </rect>
</g><g transform="rotate(135.65217391304347 50 50)">
  <rect x="49.5" y="2.5" rx="0" ry="0" width="1" height="29" fill="#71f7fe">
    <animate attributeName="opacity" values="1;0" keyTimes="0;1" dur="1s" begin="-0.6086956521739131s" repeatCount="indefinite"></animate>
  </rect>
</g><g transform="rotate(140.8695652173913 50 50)">
  <rect x="49.5" y="2.5" rx="0" ry="0" width="1" height="29" fill="#71f7fe">
    <animate attributeName="opacity" values="1;0" keyTimes="0;1" dur="1s" begin="-0.5942028985507246s" repeatCount="indefinite"></animate>
  </rect>
</g><g transform="rotate(146.08695652173913 50 50)">
  <rect x="49.5" y="2.5" rx="0" ry="0" width="1" height="29" fill="#71f7fe">
    <animate attributeName="opacity" values="1;0" keyTimes="0;1" dur="1s" begin="-0.5797101449275363s" repeatCount="indefinite"></animate>
  </rect>
</g><g transform="rotate(151.30434782608697 50 50)">
  <rect x="49.5" y="2.5" rx="0" ry="0" width="1" height="29" fill="#71f7fe">
    <animate attributeName="opacity" values="1;0" keyTimes="0;1" dur="1s" begin="-0.5652173913043478s" repeatCount="indefinite"></animate>
  </rect>
</g><g transform="rotate(156.52173913043478 50 50)">
  <rect x="49.5" y="2.5" rx="0" ry="0" width="1" height="29" fill="#71f7fe">
    <animate attributeName="opacity" values="1;0" keyTimes="0;1" dur="1s" begin="-0.5507246376811594s" repeatCount="indefinite"></animate>
  </rect>
</g><g transform="rotate(161.7391304347826 50 50)">
  <rect x="49.5" y="2.5" rx="0" ry="0" width="1" height="29" fill="#71f7fe">
    <animate attributeName="opacity" values="1;0" keyTimes="0;1" dur="1s" begin="-0.5362318840579711s" repeatCount="indefinite"></animate>
  </rect>
</g><g transform="rotate(166.95652173913044 50 50)">
  <rect x="49.5" y="2.5" rx="0" ry="0" width="1" height="29" fill="#71f7fe">
    <animate attributeName="opacity" values="1;0" keyTimes="0;1" dur="1s" begin="-0.5217391304347826s" repeatCount="indefinite"></animate>
  </rect>
</g><g transform="rotate(172.17391304347825 50 50)">
  <rect x="49.5" y="2.5" rx="0" ry="0" width="1" height="29" fill="#71f7fe">
    <animate attributeName="opacity" values="1;0" keyTimes="0;1" dur="1s" begin="-0.5072463768115942s" repeatCount="indefinite"></animate>
  </rect>
</g><g transform="rotate(177.3913043478261 50 50)">
  <rect x="49.5" y="2.5" rx="0" ry="0" width="1" height="29" fill="#71f7fe">
    <animate attributeName="opacity" values="1;0" keyTimes="0;1" dur="1s" begin="-0.4927536231884058s" repeatCount="indefinite"></animate>
  </rect>
</g><g transform="rotate(182.6086956521739 50 50)">
  <rect x="49.5" y="2.5" rx="0" ry="0" width="1" height="29" fill="#71f7fe">
    <animate attributeName="opacity" values="1;0" keyTimes="0;1" dur="1s" begin="-0.4782608695652174s" repeatCount="indefinite"></animate>
  </rect>
</g><g transform="rotate(187.82608695652175 50 50)">
  <rect x="49.5" y="2.5" rx="0" ry="0" width="1" height="29" fill="#71f7fe">
    <animate attributeName="opacity" values="1;0" keyTimes="0;1" dur="1s" begin="-0.463768115942029s" repeatCount="indefinite"></animate>
  </rect>
</g><g transform="rotate(193.04347826086956 50 50)">
  <rect x="49.5" y="2.5" rx="0" ry="0" width="1" height="29" fill="#71f7fe">
    <animate attributeName="opacity" values="1;0" keyTimes="0;1" dur="1s" begin="-0.4492753623188406s" repeatCount="indefinite"></animate>
  </rect>
</g><g transform="rotate(198.2608695652174 50 50)">
  <rect x="49.5" y="2.5" rx="0" ry="0" width="1" height="29" fill="#71f7fe">
    <animate attributeName="opacity" values="1;0" keyTimes="0;1" dur="1s" begin="-0.43478260869565216s" repeatCount="indefinite"></animate>
  </rect>
</g><g transform="rotate(203.47826086956522 50 50)">
  <rect x="49.5" y="2.5" rx="0" ry="0" width="1" height="29" fill="#71f7fe">
    <animate attributeName="opacity" values="1;0" keyTimes="0;1" dur="1s" begin="-0.42028985507246375s" repeatCount="indefinite"></animate>
  </rect>
</g><g transform="rotate(208.69565217391303 50 50)">
  <rect x="49.5" y="2.5" rx="0" ry="0" width="1" height="29" fill="#71f7fe">
    <animate attributeName="opacity" values="1;0" keyTimes="0;1" dur="1s" begin="-0.4057971014492754s" repeatCount="indefinite"></animate>
  </rect>
</g><g transform="rotate(213.91304347826087 50 50)">
  <rect x="49.5" y="2.5" rx="0" ry="0" width="1" height="29" fill="#71f7fe">
    <animate attributeName="opacity" values="1;0" keyTimes="0;1" dur="1s" begin="-0.391304347826087s" repeatCount="indefinite"></animate>
  </rect>
</g><g transform="rotate(219.1304347826087 50 50)">
  <rect x="49.5" y="2.5" rx="0" ry="0" width="1" height="29" fill="#71f7fe">
    <animate attributeName="opacity" values="1;0" keyTimes="0;1" dur="1s" begin="-0.37681159420289856s" repeatCount="indefinite"></animate>
  </rect>
</g><g transform="rotate(224.34782608695653 50 50)">
  <rect x="49.5" y="2.5" rx="0" ry="0" width="1" height="29" fill="#71f7fe">
    <animate attributeName="opacity" values="1;0" keyTimes="0;1" dur="1s" begin="-0.36231884057971014s" repeatCount="indefinite"></animate>
  </rect>
</g><g transform="rotate(229.56521739130434 50 50)">
  <rect x="49.5" y="2.5" rx="0" ry="0" width="1" height="29" fill="#71f7fe">
    <animate attributeName="opacity" values="1;0" keyTimes="0;1" dur="1s" begin="-0.34782608695652173s" repeatCount="indefinite"></animate>
  </rect>
</g><g transform="rotate(234.7826086956522 50 50)">
  <rect x="49.5" y="2.5" rx="0" ry="0" width="1" height="29" fill="#71f7fe">
    <animate attributeName="opacity" values="1;0" keyTimes="0;1" dur="1s" begin="-0.3333333333333333s" repeatCount="indefinite"></animate>
  </rect>
</g><g transform="rotate(240 50 50)">
  <rect x="49.5" y="2.5" rx="0" ry="0" width="1" height="29" fill="#71f7fe">
    <animate attributeName="opacity" values="1;0" keyTimes="0;1" dur="1s" begin="-0.3188405797101449s" repeatCount="indefinite"></animate>
  </rect>
</g><g transform="rotate(245.2173913043478 50 50)">
  <rect x="49.5" y="2.5" rx="0" ry="0" width="1" height="29" fill="#71f7fe">
    <animate attributeName="opacity" values="1;0" keyTimes="0;1" dur="1s" begin="-0.30434782608695654s" repeatCount="indefinite"></animate>
  </rect>
</g><g transform="rotate(250.43478260869566 50 50)">
  <rect x="49.5" y="2.5" rx="0" ry="0" width="1" height="29" fill="#71f7fe">
    <animate attributeName="opacity" values="1;0" keyTimes="0;1" dur="1s" begin="-0.2898550724637681s" repeatCount="indefinite"></animate>
  </rect>
</g><g transform="rotate(255.65217391304347 50 50)">
  <rect x="49.5" y="2.5" rx="0" ry="0" width="1" height="29" fill="#71f7fe">
    <animate attributeName="opacity" values="1;0" keyTimes="0;1" dur="1s" begin="-0.2753623188405797s" repeatCount="indefinite"></animate>
  </rect>
</g><g transform="rotate(260.8695652173913 50 50)">
  <rect x="49.5" y="2.5" rx="0" ry="0" width="1" height="29" fill="#71f7fe">
    <animate attributeName="opacity" values="1;0" keyTimes="0;1" dur="1s" begin="-0.2608695652173913s" repeatCount="indefinite"></animate>
  </rect>
</g><g transform="rotate(266.0869565217391 50 50)">
  <rect x="49.5" y="2.5" rx="0" ry="0" width="1" height="29" fill="#71f7fe">
    <animate attributeName="opacity" values="1;0" keyTimes="0;1" dur="1s" begin="-0.2463768115942029s" repeatCount="indefinite"></animate>
  </rect>
</g><g transform="rotate(271.30434782608694 50 50)">
  <rect x="49.5" y="2.5" rx="0" ry="0" width="1" height="29" fill="#71f7fe">
    <animate attributeName="opacity" values="1;0" keyTimes="0;1" dur="1s" begin="-0.2318840579710145s" repeatCount="indefinite"></animate>
  </rect>
</g><g transform="rotate(276.5217391304348 50 50)">
  <rect x="49.5" y="2.5" rx="0" ry="0" width="1" height="29" fill="#71f7fe">
    <animate attributeName="opacity" values="1;0" keyTimes="0;1" dur="1s" begin="-0.21739130434782608s" repeatCount="indefinite"></animate>
  </rect>
</g><g transform="rotate(281.7391304347826 50 50)">
  <rect x="49.5" y="2.5" rx="0" ry="0" width="1" height="29" fill="#71f7fe">
    <animate attributeName="opacity" values="1;0" keyTimes="0;1" dur="1s" begin="-0.2028985507246377s" repeatCount="indefinite"></animate>
  </rect>
</g><g transform="rotate(286.95652173913044 50 50)">
  <rect x="49.5" y="2.5" rx="0" ry="0" width="1" height="29" fill="#71f7fe">
    <animate attributeName="opacity" values="1;0" keyTimes="0;1" dur="1s" begin="-0.18840579710144928s" repeatCount="indefinite"></animate>
  </rect>
</g><g transform="rotate(292.17391304347825 50 50)">
  <rect x="49.5" y="2.5" rx="0" ry="0" width="1" height="29" fill="#71f7fe">
    <animate attributeName="opacity" values="1;0" keyTimes="0;1" dur="1s" begin="-0.17391304347826086s" repeatCount="indefinite"></animate>
  </rect>
</g><g transform="rotate(297.39130434782606 50 50)">
  <rect x="49.5" y="2.5" rx="0" ry="0" width="1" height="29" fill="#71f7fe">
    <animate attributeName="opacity" values="1;0" keyTimes="0;1" dur="1s" begin="-0.15942028985507245s" repeatCount="indefinite"></animate>
  </rect>
</g><g transform="rotate(302.60869565217394 50 50)">
  <rect x="49.5" y="2.5" rx="0" ry="0" width="1" height="29" fill="#71f7fe">
    <animate attributeName="opacity" values="1;0" keyTimes="0;1" dur="1s" begin="-0.14492753623188406s" repeatCount="indefinite"></animate>
  </rect>
</g><g transform="rotate(307.82608695652175 50 50)">
  <rect x="49.5" y="2.5" rx="0" ry="0" width="1" height="29" fill="#71f7fe">
    <animate attributeName="opacity" values="1;0" keyTimes="0;1" dur="1s" begin="-0.13043478260869565s" repeatCount="indefinite"></animate>
  </rect>
</g><g transform="rotate(313.04347826086956 50 50)">
  <rect x="49.5" y="2.5" rx="0" ry="0" width="1" height="29" fill="#71f7fe">
    <animate attributeName="opacity" values="1;0" keyTimes="0;1" dur="1s" begin="-0.11594202898550725s" repeatCount="indefinite"></animate>
  </rect>
</g><g transform="rotate(318.2608695652174 50 50)">
  <rect x="49.5" y="2.5" rx="0" ry="0" width="1" height="29" fill="#71f7fe">
    <animate attributeName="opacity" values="1;0" keyTimes="0;1" dur="1s" begin="-0.10144927536231885s" repeatCount="indefinite"></animate>
  </rect>
</g><g transform="rotate(323.4782608695652 50 50)">
  <rect x="49.5" y="2.5" rx="0" ry="0" width="1" height="29" fill="#71f7fe">
    <animate attributeName="opacity" values="1;0" keyTimes="0;1" dur="1s" begin="-0.08695652173913043s" repeatCount="indefinite"></animate>
  </rect>
</g><g transform="rotate(328.69565217391306 50 50)">
  <rect x="49.5" y="2.5" rx="0" ry="0" width="1" height="29" fill="#71f7fe">
    <animate attributeName="opacity" values="1;0" keyTimes="0;1" dur="1s" begin="-0.07246376811594203s" repeatCount="indefinite"></animate>
  </rect>
</g><g transform="rotate(333.9130434782609 50 50)">
  <rect x="49.5" y="2.5" rx="0" ry="0" width="1" height="29" fill="#71f7fe">
    <animate attributeName="opacity" values="1;0" keyTimes="0;1" dur="1s" begin="-0.057971014492753624s" repeatCount="indefinite"></animate>
  </rect>
</g><g transform="rotate(339.1304347826087 50 50)">
  <rect x="49.5" y="2.5" rx="0" ry="0" width="1" height="29" fill="#71f7fe">
    <animate attributeName="opacity" values="1;0" keyTimes="0;1" dur="1s" begin="-0.043478260869565216s" repeatCount="indefinite"></animate>
  </rect>
</g><g transform="rotate(344.3478260869565 50 50)">
  <rect x="49.5" y="2.5" rx="0" ry="0" width="1" height="29" fill="#71f7fe">
    <animate attributeName="opacity" values="1;0" keyTimes="0;1" dur="1s" begin="-0.028985507246376812s" repeatCount="indefinite"></animate>
  </rect>
</g><g transform="rotate(349.5652173913044 50 50)">
  <rect x="49.5" y="2.5" rx="0" ry="0" width="1" height="29" fill="#71f7fe">
    <animate attributeName="opacity" values="1;0" keyTimes="0;1" dur="1s" begin="-0.014492753623188406s" repeatCount="indefinite"></animate>
  </rect>
</g><g transform="rotate(354.7826086956522 50 50)">
  <rect x="49.5" y="2.5" rx="0" ry="0" width="1" height="29" fill="#71f7fe">
    <animate attributeName="opacity" values="1;0" keyTimes="0;1" dur="1s" begin="0s" repeatCount="indefinite"></animate>
  </rect>
</g>
<!-- [ldio] generated by https://loading.io/ --></svg>